<?xml version="1.0" encoding="utf-8"?>
<!-- Generator: Adobe Illustrator 27.0.0, SVG Export Plug-In . SVG Version: 6.00 Build 0)  -->
<svg version="1.1" id="Layer_1" xmlns="http://www.w3.org/2000/svg" xmlns:xlink="http://www.w3.org/1999/xlink" x="0px" y="0px"
	 viewBox="0 0 422.3 145.2" style="enable-background:new 0 0 422.3 145.2;" xml:space="preserve">
<style type="text/css">
	.st0{fill:#207784;}
	.st1{fill:#FFBB1B;}
	.st2{fill:url(#SVGID_1_);}
	.st3{fill:url(#SVGID_00000119822303193958199360000004498682413123515067_);}
	.st4{fill:url(#SVGID_00000165215102707418580750000003804906476692841359_);}
	.st5{fill:#FFFFFF;}
	.st6{fill:#2F4F4F;}
	.st7{fill:#59BDF9;}
</style>
<g>
	<path class="st0" d="M721.8-1135c-7.4-12-21.3-18.6-35.4-16.4c-15.3,2.4-27.3,16.2-29.2,31.4c-0.8,6.8,0.6,13.7,3,20
		c6.1,16.5,17.1,29.8,29.1,42.3c1.9,2,3.9,1.9,5.9-0.2c10.8-11.4,20.3-23.5,26.8-37.9C727.8-1108.9,729.9-1122,721.8-1135z
		 M708.7-1112.2c-2.4,10.5-8.4,20.3-15.2,28.6c-0.4,0.5-0.8,1-1.4,1.1c-0.6,0.1-1.1-0.3-1.6-0.7c-1.8-1.7-3.2-4.2-4.7-6.2
		c-1.6-2.3-3.1-4.6-4.5-7c-2.8-4.8-5-9.9-6-15.3c-1.4-6.9-0.1-13,5.2-18c0,0,0,0,0,0c1-0.9,2.1-1.7,3.4-2.3c0.1,0,0.2-0.1,0.2-0.1
		c5.5-2.7,11-2.4,16.4,0.3c0.1,0.1,0.3,0.1,0.4,0.2c1.1,0.6,2.2,1.4,3.1,2.3c0,0,0,0,0,0C708.8-1124.4,710.2-1118.6,708.7-1112.2z"
		/>
</g>
<circle class="st1" cx="692.1" cy="-1038.4" r="10.4"/>
<circle class="st1" cx="579.6" cy="-450.5" r="10.4"/>
<linearGradient id="SVGID_1_" gradientUnits="userSpaceOnUse" x1="1709.0179" y1="-1150.9745" x2="1748.4766" y2="-1218.1342">
	<stop  offset="0" style="stop-color:#AEC4FA"/>
	<stop  offset="1" style="stop-color:#F0ECFA"/>
</linearGradient>
<path class="st2" d="M1729-1221h2.2c27.1,0,43.8,29.6,29.8,52.8l-32,52.9l-30.9-53.5c-13.4-23.2,3.3-52.2,30.1-52.2H1729z"/>
<linearGradient id="SVGID_00000021835291856363416180000004299029711765523130_" gradientUnits="userSpaceOnUse" x1="1723" y1="-1031.5129" x2="1739.533" y2="-1059.6523">
	<stop  offset="0" style="stop-color:#AEC4FA"/>
	<stop  offset="1" style="stop-color:#F0ECFA"/>
</linearGradient>
<circle style="fill:url(#SVGID_00000021835291856363416180000004299029711765523130_);" cx="1728.9" cy="-1041.6" r="20.4"/>
<g>
	<path class="st0" d="M1360.5-979.8h-20.9v63.5H1321v-63.5H1300v-17.9h60.5V-979.8z"/>
	<path class="st0" d="M1387.2-930.2c4.8,0,8.8-1.9,11.2-4.4l14,8c-5.7,7.9-14.3,12-25.4,12c-19.9,0-32.2-13.4-32.2-30.7
		s12.6-30.7,31-30.7c17,0,29.6,13.2,29.6,30.7c0,2.4-0.2,4.8-0.7,7h-41.3C1375.4-932.3,1380.8-930.2,1387.2-930.2z M1397.9-951.4
		c-1.9-6.8-7.1-9.2-12.3-9.2c-6.6,0-11.1,3.3-12.7,9.2H1397.9z"/>
	<path class="st0" d="M1461.2-916.2l-18.6-25.7v25.7h-17.5v-81.5h17.5v48.8l17.5-25.5h20.4l-21.2,29.1l21.8,29.1H1461.2z"/>
	<path class="st1" d="M1500.7-916.2l-21.7-29.1l0,0l21.2-29.1h19.8l-21.2,29.1l21.8,29.1H1500.7z"/>
	<path class="st0" d="M1526.9-990c0-5.7,4.8-10.5,10.5-10.5c5.7,0,10.5,4.8,10.5,10.5s-4.8,10.5-10.5,10.5
		C1531.6-979.5,1526.9-984.3,1526.9-990z M1528.6-974.4h17.5v58.2h-17.5V-974.4z"/>
	<path class="st0" d="M1581-957.7v20.6c0,5,4.3,5.5,12,5v15.8c-22.8,2.3-29.4-4.5-29.4-20.8v-20.6h-9.3v-16.8h9.3v-11.1l17.5-5.2
		v16.3h12v16.8H1581z"/>
</g>
<g>
	<path d="M825.4-1058.6c4.8,0,8.8-1.9,11.2-4.4l14,8c-5.7,7.9-14.3,12-25.4,12c-19.9,0-32.2-13.4-32.2-30.7s12.6-30.7,31-30.7
		c17,0,29.6,13.2,29.6,30.7c0,2.4-0.2,4.8-0.7,7h-41.3C813.7-1060.7,819-1058.6,825.4-1058.6z M836.1-1079.8
		c-1.9-6.8-7.1-9.2-12.3-9.2c-6.6,0-11.1,3.3-12.7,9.2H836.1z"/>
	<path d="M880.8-1070.4v25.7h-17.5v-81.5h17.5V-1070.4"/>
</g>
<path d="M959.9-1102.8h17.5v58.2h-17.5V-1102.8z"/>
<circle cx="968.6" cy="-1121.1" r="10.1"/>
<path class="st1" d="M898.1-1049.1l-15.7-21c-1.7-2.2-1.7-5.2,0-7.5l15.1-20.8c2.1-2.8,5.4-4.5,8.9-4.5h10.4c1.6,0,2.5,1.8,1.5,3
	l-16.5,22.7c-1.4,2-1.4,4.7,0,6.6l17,22.7c0.9,1.3,0,3.1-1.5,3.1h-10.4C903.5-1044.6,900.2-1046.3,898.1-1049.1z"/>
<path class="st0" d="M927.6-1049.1l-15.7-21c-1.7-2.2-1.7-5.2,0-7.5l15.1-20.8c2.1-2.8,5.4-4.5,8.9-4.5h10.4c1.6,0,2.5,1.8,1.5,3
	l-16.5,22.7c-1.4,2-1.4,4.7,0,6.6l17,22.7c0.9,1.3,0,3.1-1.5,3.1h-10.4C933-1044.6,929.7-1046.3,927.6-1049.1z"/>
<path d="M1012.2-1086.1v20.6c0,5,4.3,5.5,12,5v15.8c-22.8,2.3-29.4-4.5-29.4-20.8v-20.6l0,0v-16.8l0,0v-16.3h17.5v16.3h12v16.8
	H1012.2z"/>
<path d="M775.9-1086.1v20.6c0,5,4.3,5.5,12,5v15.8c-22.8,2.3-29.4-4.5-29.4-20.8v-20.6l0,0v-16.8l0,0v-16.3h17.5v16.3h12v16.8H775.9
	z"/>
<g>
	<path class="st0" d="M735.6-964.1c-7.4-12-21.3-18.6-35.4-16.4c-15.3,2.4-27.3,16.2-29.2,31.4c-0.8,6.8,0.6,13.7,3,20
		c6.1,16.5,17.1,29.8,29.1,42.3c1.9,2,3.9,1.9,5.9-0.2c10.8-11.4,20.3-23.5,26.8-37.9C741.6-937.9,743.7-951,735.6-964.1z
		 M722.5-941.2c-2.4,10.5-8.4,20.3-15.2,28.6c-0.4,0.5-0.8,1-1.4,1.1c-0.6,0.1-1.1-0.3-1.6-0.7c-1.8-1.7-3.2-4.2-4.7-6.2
		c-1.6-2.3-3.1-4.6-4.5-7c-2.8-4.8-5-9.9-6-15.3c-1.4-6.9-0.1-13,5.2-18c0,0,0,0,0,0c1-0.9,2.1-1.7,3.4-2.3c0.1,0,0.2-0.1,0.2-0.1
		c5.5-2.7,11-2.4,16.4,0.3c0.1,0.1,0.3,0.1,0.4,0.2c1.1,0.6,2.2,1.4,3.1,2.3c0,0,0,0,0,0C722.5-953.4,724-947.7,722.5-941.2z"/>
</g>
<g>
	<path d="M825.4-906.3c4.8,0,8.8-1.9,11.2-4.4l14,8c-5.7,7.9-14.3,12-25.4,12c-19.9,0-32.2-13.4-32.2-30.7s12.6-30.7,31-30.7
		c17,0,29.6,13.2,29.6,30.7c0,2.4-0.2,4.8-0.7,7h-41.3C813.7-908.4,819-906.3,825.4-906.3z M836.1-927.5c-1.9-6.8-7.1-9.2-12.3-9.2
		c-6.6,0-11.1,3.3-12.7,9.2H836.1z"/>
	<path d="M880.8-918.1v23.2c0,1.4-1.1,2.5-2.5,2.5h-12.5c-1.4,0-2.5-1.1-2.5-2.5v-76.5c0-1.4,1.1-2.5,2.5-2.5h12.5
		c1.4,0,2.5,1.1,2.5,2.5V-918.1"/>
</g>
<path d="M967.4-950.5h12.5c1.4,0,2.5,1.1,2.5,2.5v53.2c0,1.4-1.1,2.5-2.5,2.5h-12.5c-1.4,0-2.5-1.1-2.5-2.5V-948
	C964.9-949.4,966-950.5,967.4-950.5z"/>
<circle cx="973.6" cy="-968.8" r="10.1"/>
<path d="M898.1-896.8l-15.7-21c-1.7-2.2-1.7-5.2,0-7.5l15.1-20.8c2.1-2.8,5.4-4.5,8.9-4.5h10.4c1.6,0,2.5,1.8,1.5,3l-16.5,22.7
	c-1.4,2-1.4,4.7,0,6.6l17,22.7c0.9,1.3,0,3.1-1.5,3.1h-10.4C903.5-892.4,900.2-894,898.1-896.8z"/>
<path class="st0" d="M933.6-896.8l-15.7-21c-1.7-2.2-1.7-5.2,0-7.5L933-946c2.1-2.8,5.4-4.5,8.9-4.5h10.4c1.6,0,2.5,1.8,1.5,3
	l-16.5,22.7c-1.4,2-1.4,4.7,0,6.6l17,22.7c0.9,1.3,0,3.1-1.5,3.1h-10.4C939-892.4,935.7-894,933.6-896.8z"/>
<path d="M1014.2-933.8c-1.1,0-2,0.9-2,2v18.6c0,4.5,3.5,5.3,9.9,5.1c1.1,0,2.1,0.9,2.1,2v11.9c0,1-0.8,1.9-1.9,2
	c-21.3,1.8-27.6-5.2-27.6-21v-20.6l0,0v-16.8l0,0v-14.3c0-1.1,0.9-2,2-2h13.5c1.1,0,2,0.9,2,2v12.3c0,1.1,0.9,2,2,2h8
	c1.1,0,2,0.9,2,2v12.8c0,1.1-0.9,2-2,2H1014.2z"/>
<path d="M775.9-933.8v20.6c0,4.4,3.4,5.3,9.4,5.1c1.4,0,2.6,1.1,2.6,2.5v10.9c0,1.3-1,2.4-2.3,2.5c-20.9,1.6-27.1-5.3-27.1-21v-20.6
	l0,0v-16.8l0,0v-13.8c0-1.4,1.1-2.5,2.5-2.5h12.5c1.4,0,2.5,1.1,2.5,2.5v13.8h9.5c1.4,0,2.5,1.1,2.5,2.5v11.8c0,1.4-1.1,2.5-2.5,2.5
	H775.9z"/>
<g>
	<path class="st0" d="M609.4-547.7c-7.4-12-21.3-18.6-35.4-16.4c-15.3,2.4-27.3,16.2-29.2,31.4c-0.8,6.8,0.6,13.7,3,20
		c6.1,16.5,17.1,29.8,29.1,42.3c1.9,2,3.9,1.9,5.9-0.2c10.8-11.4,20.3-23.5,26.8-37.9C615.4-521.5,617.5-534.6,609.4-547.7z
		 M596.3-524.8c-2.4,10.5-8.4,20.3-15.2,28.6c-0.4,0.5-0.8,1-1.4,1.1c-0.6,0.1-1.1-0.3-1.6-0.7c-1.8-1.7-3.2-4.2-4.7-6.2
		c-1.6-2.3-3.1-4.6-4.5-7c-2.8-4.8-5-9.9-6-15.3c-1.4-6.9-0.1-13,5.2-18c0,0,0,0,0,0c1-0.9,2.1-1.7,3.4-2.3c0.1,0,0.2-0.1,0.2-0.1
		c5.5-2.7,11-2.4,16.4,0.3c0.1,0.1,0.3,0.1,0.4,0.2c1.1,0.6,2.2,1.4,3.1,2.3c0,0,0,0,0,0C596.3-537.1,597.8-531.3,596.3-524.8z"/>
</g>
<g>
	<path d="M699.2-484c4.8,0,8.8-1.9,11.2-4.4l14,8c-5.7,7.9-14.3,12-25.4,12c-19.9,0-32.2-13.4-32.2-30.7c0-17.3,12.6-30.7,31-30.7
		c17,0,29.6,13.2,29.6,30.7c0,2.4-0.2,4.8-0.7,7h-41.3C687.4-486,692.8-484,699.2-484z M709.9-505.1c-1.9-6.8-7.1-9.2-12.3-9.2
		c-6.6,0-11.1,3.3-12.7,9.2H709.9z"/>
	<path d="M754.6-495.7v23.2c0,1.4-1.1,2.5-2.5,2.5h-12.5c-1.4,0-2.5-1.1-2.5-2.5V-549c0-1.4,1.1-2.5,2.5-2.5h12.5
		c1.4,0,2.5,1.1,2.5,2.5V-495.7"/>
</g>
<path d="M840.7-528.2h12.5c1.4,0,2.5,1.1,2.5,2.5v53.2c0,1.4-1.1,2.5-2.5,2.5h-12.5c-1.4,0-2.5-1.1-2.5-2.5v-53.2
	C838.2-527.1,839.4-528.2,840.7-528.2z"/>
<circle cx="847" cy="-546.4" r="10.1"/>
<path d="M771.5-474.4l-15.7-21c-1.7-2.2-1.7-5.2,0-7.5l15.1-20.8c2.1-2.8,5.4-4.5,8.9-4.5h10.4c1.6,0,2.5,1.8,1.5,3l-16.5,22.7
	c-1.4,2-1.4,4.7,0,6.6l17,22.7c0.9,1.3,0,3.1-1.5,3.1h-10.4C776.9-470,773.6-471.6,771.5-474.4z"/>
<path class="st1" d="M807-474.4l-15.7-21c-1.7-2.2-1.7-5.2,0-7.5l15.1-20.8c2.1-2.8,5.4-4.5,8.9-4.5h10.4c1.6,0,2.5,1.8,1.5,3
	l-16.5,22.7c-1.4,2-1.4,4.7,0,6.6l17,22.7c0.9,1.3,0,3.1-1.5,3.1h-10.4C812.3-470,809.1-471.6,807-474.4z"/>
<path d="M887.6-511.4c-1.1,0-2,0.9-2,2v18.6c0,4.5,3.5,5.3,9.9,5.1c1.1,0,2.1,0.9,2.1,2v11.9c0,1-0.8,1.9-1.9,2
	c-21.3,1.8-27.6-5.2-27.6-21v-20.6l0,0v-16.8l0,0v-14.3c0-1.1,0.9-2,2-2h13.5c1.1,0,2,0.9,2,2v12.3c0,1.1,0.9,2,2,2h8
	c1.1,0,2,0.9,2,2v12.8c0,1.1-0.9,2-2,2H887.6z"/>
<path d="M649.7-511.4v20.6c0,4.4,3.4,5.3,9.4,5.1c1.4,0,2.6,1.1,2.6,2.5v10.9c0,1.3-1,2.4-2.3,2.5c-20.9,1.6-27.1-5.3-27.1-21v-20.6
	l0,0v-16.8l0,0V-542c0-1.4,1.1-2.5,2.5-2.5h12.5c1.4,0,2.5,1.1,2.5,2.5v13.8h9.5c1.4,0,2.5,1.1,2.5,2.5v11.8c0,1.4-1.1,2.5-2.5,2.5
	H649.7z"/>
<g>
	<path d="M710.4-259.3c4.8,0,8.8-1.9,11.2-4.4l14,8c-5.7,7.9-14.3,12-25.4,12c-19.9,0-32.2-13.4-32.2-30.7s12.6-30.7,31-30.7
		c17,0,29.6,13.2,29.6,30.7c0,2.4-0.2,4.8-0.7,7h-41.3C698.6-261.4,704-259.3,710.4-259.3z M721.1-280.5c-1.9-6.8-7.1-9.2-12.3-9.2
		c-6.6,0-11.1,3.3-12.7,9.2H721.1z"/>
	<path d="M765.7-271.1v23.2c0,1.4-1.1,2.5-2.5,2.5h-12.5c-1.4,0-2.5-1.1-2.5-2.5v-76.5c0-1.4,1.1-2.5,2.5-2.5h12.5
		c1.4,0,2.5,1.1,2.5,2.5V-271.1"/>
</g>
<path d="M851.9-303.6h12.5c1.4,0,2.5,1.1,2.5,2.5v53.2c0,1.4-1.1,2.5-2.5,2.5h-12.5c-1.4,0-2.5-1.1-2.5-2.5v-53.2
	C849.4-302.4,850.5-303.6,851.9-303.6z"/>
<circle cx="858.1" cy="-321.8" r="10.1"/>
<path d="M782.7-249.8l-15.7-21c-1.7-2.2-1.7-5.2,0-7.5l15.1-20.8c2.1-2.8,5.4-4.5,8.9-4.5h10.4c1.6,0,2.5,1.8,1.5,3l-16.5,22.7
	c-1.4,2-1.4,4.7,0,6.6l17,22.7c0.9,1.3,0,3.1-1.5,3.1h-10.4C788-245.4,784.7-247,782.7-249.8z"/>
<path class="st1" d="M818.2-249.8l-15.7-21c-1.7-2.2-1.7-5.2,0-7.5l15.1-20.8c2.1-2.8,5.4-4.5,8.9-4.5h10.4c1.6,0,2.5,1.8,1.5,3
	l-16.5,22.7c-1.4,2-1.4,4.7,0,6.6l17,22.7c0.9,1.3,0,3.1-1.5,3.1H827C823.5-245.4,820.2-247,818.2-249.8z"/>
<path d="M898.8-286.8c-1.1,0-2,0.9-2,2v18.6c0,4.5,3.5,5.3,9.9,5.1c1.1,0,2.1,0.9,2.1,2v11.9c0,1-0.8,1.9-1.9,2
	c-21.3,1.8-27.6-5.2-27.6-21v-20.6l0,0v-16.8l0,0v-14.3c0-1.1,0.9-2,2-2h13.5c1.1,0,2,0.9,2,2v12.3c0,1.1,0.9,2,2,2h8
	c1.1,0,2,0.9,2,2v12.8c0,1.1-0.9,2-2,2H898.8z"/>
<path d="M660.8-286.8v20.6c0,4.4,3.4,5.3,9.4,5.1c1.4,0,2.6,1.1,2.6,2.5v10.9c0,1.3-1,2.4-2.3,2.5c-20.9,1.6-27.1-5.3-27.1-21v-20.6
	l0,0v-16.8l0,0v-13.8c0-1.4,1.1-2.5,2.5-2.5h12.5c1.4,0,2.5,1.1,2.5,2.5v13.8h9.5c1.4,0,2.5,1.1,2.5,2.5v11.8c0,1.4-1.1,2.5-2.5,2.5
	H660.8z"/>
<g>
	<path class="st0" d="M721.8-1348.6c-7.4-12-21.3-18.6-35.4-16.4c-15.3,2.4-27.3,16.2-29.2,31.4c-0.8,6.8,0.6,13.7,3,20
		c6.1,16.5,17.1,29.8,29.1,42.3c1.9,2,3.9,1.9,5.9-0.2c10.8-11.4,20.3-23.5,26.8-37.9C727.8-1322.4,729.9-1335.5,721.8-1348.6z
		 M708.7-1325.7c-2.4,10.5-8.4,20.3-15.2,28.6c-0.4,0.5-0.8,1-1.4,1.1c-0.6,0.1-1.1-0.3-1.6-0.7c-1.8-1.7-3.2-4.2-4.7-6.2
		c-1.6-2.3-3.1-4.6-4.5-7c-2.8-4.8-5-9.9-6-15.3c-1.4-6.9-0.1-13,5.2-18c0,0,0,0,0,0c1-0.9,2.1-1.7,3.4-2.3c0.1,0,0.2-0.1,0.2-0.1
		c5.5-2.7,11-2.4,16.4,0.3c0.1,0.1,0.3,0.1,0.4,0.2c1.1,0.6,2.2,1.4,3.1,2.3c0,0,0,0,0,0C708.8-1338,710.2-1332.2,708.7-1325.7z"/>
</g>
<circle class="st1" cx="692.1" cy="-1252" r="10.4"/>
<g>
	<path d="M798.8-1321.7h-20.9v63.5h-18.6v-63.5h-20.9v-17.9h60.5V-1321.7z"/>
	<path d="M825.4-1272.2c4.8,0,8.8-1.9,11.2-4.4l14,8c-5.7,7.9-14.3,12-25.4,12c-19.9,0-32.2-13.4-32.2-30.7s12.6-30.7,31-30.7
		c17,0,29.6,13.2,29.6,30.7c0,2.4-0.2,4.8-0.7,7h-41.3C813.7-1274.3,819-1272.2,825.4-1272.2z M836.1-1293.3
		c-1.9-6.8-7.1-9.2-12.3-9.2c-6.6,0-11.1,3.3-12.7,9.2H836.1z"/>
	<path d="M880.8-1283.9v25.7h-17.5v-81.5h17.5V-1283.9"/>
</g>
<path d="M959.9-1316.4h17.5v58.2h-17.5V-1316.4z"/>
<circle cx="968.6" cy="-1334.6" r="10.1"/>
<path class="st1" d="M898.1-1262.6l-15.7-21c-1.7-2.2-1.7-5.2,0-7.5l15.1-20.8c2.1-2.8,5.4-4.5,8.9-4.5h10.4c1.6,0,2.5,1.8,1.5,3
	l-16.5,22.7c-1.4,2-1.4,4.7,0,6.6l17,22.7c0.9,1.3,0,3.1-1.5,3.1h-10.4C903.5-1258.2,900.2-1259.8,898.1-1262.6z"/>
<path class="st0" d="M927.6-1262.6l-15.7-21c-1.7-2.2-1.7-5.2,0-7.5l15.1-20.8c2.1-2.8,5.4-4.5,8.9-4.5h10.4c1.6,0,2.5,1.8,1.5,3
	l-16.5,22.7c-1.4,2-1.4,4.7,0,6.6l17,22.7c0.9,1.3,0,3.1-1.5,3.1h-10.4C933-1258.2,929.7-1259.8,927.6-1262.6z"/>
<path d="M1012.2-1299.6v20.6c0,5,4.3,5.5,12,5v15.8c-22.8,2.3-29.4-4.5-29.4-20.8v-20.6h-9.3v-16.8h9.3v-11.1l17.5-5.2v16.3h12v16.8
	H1012.2z"/>
<path class="st0" d="M40.4-1302.5c8.8-15.6,25.3-24.3,42.1-21.3c18.2,3.2,32.5,21.1,34.8,40.8c1,8.8-0.7,17.8-3.5,26.1
	c-2.7,7.9-6.1,15.2-10.1,22.2c-0.7,1.2-1.3,2.3-2,3.4c0,0-3.4,5.3-6.5,9.3c-3.6,4.5-7.4,8.4-11.5,12.2c-0.3,0.3-0.6,0.6-0.9,0.9
	c-1.1,1-2.1,1.9-3.2,2.9c-1,0.8-1.9,1.7-2.9,2.5c-0.6,0.5-1.3,0.9-1.9,0.2c-0.6-0.7-0.2-1.4,0.4-2c0.1-0.1,0.2-0.2,0.3-0.3
	c2.1-2.1,4.1-4.2,6.2-6.4c0.5-0.5,0.8-1.1,0.3-1.7c-0.5-0.6-1.1-0.3-1.6,0.1c-0.2,0.2-0.5,0.5-0.7,0.7c-2.2,2.2-4.4,4.5-6.7,6.7
	c-1.1,1.1-2.3,1.3-2.9,0.6c-0.6-0.7-0.2-1.9,0.8-3c2.4-2.6,4.9-5.1,7.3-7.7c0.5-0.5,1-1.2,0.4-1.9c-0.6-0.7-1.2-0.3-1.8,0.2
	c-0.4,0.3-0.8,0.8-1.2,1.1c-2.3,2.4-4.7,4.8-7,7.1c-0.8,0.8-1.6,1-2.1,0.7c-0.1-0.1-0.2-0.2-0.3-0.3c-0.1-0.1-0.2-0.3-0.2-0.4
	c-0.3-0.7,0-1.5,0.7-2.3c1.3-1.4,2.7-2.8,4.1-4.2c1.4-1.4,2.7-2.8,4.1-4.2c0.5-0.5,0.7-1.3,0.2-1.8c-0.5-0.6-1.2-0.4-1.7,0
	c-0.2,0.1-0.3,0.3-0.4,0.4c-2.3,2.6-4.7,5.1-7,7.7c-0.8,0.8-2.2,0.9-2.8,0.1c-0.6-0.7-0.5-2.1,0.2-2.9c3-3.2,5.9-6.4,8.9-9.6
	c1.1-1.2,2-1.1,3.1,0.1c1.4,1.5,2.9,3,4.2,4.7c1.2,1.6,2.7,1.7,4.3,1.5c1.5-0.2,2.8-1,3.3-2.7c0.5-1.8,0.4-3.5-0.9-5
	c-2.4-2.6-4.7-5.2-7.1-7.7c-0.1-0.1-0.2-0.3-0.3-0.4c0.5-0.6,0.9-1.2,1.3-1.8c1.2-1.7,2.3-3.6,3.3-5.3c1.9-3,3.7-6,5.4-9.1
	c3.1-6,5.9-12.7,7.1-19.5c1.1-6.3,0.7-13.2-2.2-18.7c-3-5.6-8.5-9.4-14.4-10.4c-5.1-0.8-10.4,0.4-14.7,3.4c-4.3,3.1-7.4,8-8.5,13.5
	c-1,5.2-0.1,10.7,1.3,15.8c4.3,15.7,13.3,29.7,25.3,39.4c0.8,0.6,1.6,1.3,2.2,2.2c0.5,0.9,0.8,2.1,0.2,3.1c-0.6,1.1-2,1.3-3.1,0.9
	c-1.1-0.4-2-1.4-2.8-2.3c-1.1-1.3-2.3-2.5-3.4-3.8c-0.5-0.5-1-1.1-1.6-1.4c-1.4-0.6-2.2,0.7-3.1,1.7c-2.9,3.3-6,6.5-9.4,9.2
	c-2.1,1.6-9.9-10.1-11.2-12.2c-4.2-7-7.9-14.6-10.9-22.2c-3-7.6-5.1-15.7-5.2-24c0-1.2,0-2.3,0-3.5c0-0.3,0-0.7,0.1-1
	C34.7-1289.2,36.9-1296.2,40.4-1302.5z"/>
<linearGradient id="SVGID_00000095298060772777309260000001351130606980641972_" gradientUnits="userSpaceOnUse" x1="621.6211" y1="-260.6798" x2="552.9193" y2="-329.3817">
	<stop  offset="0" style="stop-color:#61A7F9"/>
	<stop  offset="1" style="stop-color:#4959F6"/>
</linearGradient>
<path style="fill:url(#SVGID_00000095298060772777309260000001351130606980641972_);" d="M587.3-346.5c-23,0-41.7,18.7-41.7,41.7
	c0,23,18.7,69.8,41.7,69.8c23,0,41.7-46.8,41.7-69.8C629-327.8,610.3-346.5,587.3-346.5z M587.3-283.2c-11.9,0-21.5-9.6-21.5-21.5
	s9.6-21.5,21.5-21.5c11.9,0,21.5,9.6,21.5,21.5S599.2-283.2,587.3-283.2z"/>
<path class="st5" d="M618.9-182.7h-63.2v-70.7c0-11.7,9.5-21.2,21.2-21.2h20.8c11.7,0,21.2,9.5,21.2,21.2V-182.7z"/>
<circle class="st1" cx="587.3" cy="-241.3" r="12.6"/>
<g>
	<g>
		<g>
			<path d="M198.4,104.4c5.3,0,9.9-2.1,12.4-4.9l15.6,8.9c-6.4,8.8-15.9,13.4-28.3,13.4c-22.2,0-35.9-14.9-35.9-34.2
				s14-34.2,34.5-34.2c18.9,0,32.9,14.6,32.9,34.2c0,2.7-0.3,5.3-0.8,7.8h-46C185.3,102,191.3,104.4,198.4,104.4z M210.3,80.8
				c-2.1-7.5-7.9-10.2-13.7-10.2c-7.4,0-12.3,3.6-14.1,10.2H210.3z"/>
			<path d="M260.1,91.3v25.9c0,1.5-1.2,2.8-2.8,2.8h-13.9c-1.5,0-2.8-1.2-2.8-2.8V32c0-1.5,1.2-2.8,2.8-2.8h13.9
				c1.5,0,2.8,1.2,2.8,2.8V91.3"/>
		</g>
		<path d="M356.1,55.1h13.9c1.5,0,2.8,1.2,2.8,2.8v59.2c0,1.5-1.2,2.8-2.8,2.8h-13.9c-1.5,0-2.8-1.2-2.8-2.8V57.9
			C353.3,56.3,354.5,55.1,356.1,55.1z"/>
		<circle cx="363" cy="34.8" r="11.3"/>
		<path d="M278.9,115l-17.4-23.3c-1.8-2.5-1.9-5.8-0.1-8.3l16.9-23.2c2.3-3.2,6-5,9.9-5h11.6c1.7,0,2.8,2,1.7,3.4l-18.4,25.3
			c-1.6,2.2-1.6,5.2,0,7.4l18.9,25.3c1.1,1.4,0,3.4-1.7,3.4h-11.6C284.9,119.9,281.3,118.1,278.9,115z"/>
		<path class="st1" d="M318.5,115L301,91.6c-1.8-2.5-1.9-5.8-0.1-8.3l16.9-23.2c2.3-3.2,6-5,9.9-5h11.6c1.7,0,2.8,2,1.7,3.4
			l-18.4,25.3c-1.6,2.2-1.6,5.2,0,7.4l18.9,25.3c1.1,1.4,0,3.4-1.7,3.4h-11.6C324.4,119.9,320.8,118.1,318.5,115z"/>
		<path d="M408.3,73.8c-1.2,0-2.2,1-2.2,2.2v20.7c0,5,3.9,5.9,11,5.7c1.3,0,2.3,1,2.3,2.2v13.3c0,1.2-0.9,2.1-2.1,2.2
			c-23.7,2-30.7-5.7-30.7-23.4V73.8l0,0V55.1l0,0V39.2c0-1.2,1-2.2,2.2-2.2h15c1.2,0,2.2,1,2.2,2.2v13.7c0,1.2,1,2.2,2.2,2.2h8.9
			c1.2,0,2.2,1,2.2,2.2v14.2c0,1.2-1,2.2-2.2,2.2H408.3z"/>
		<path d="M143.3,73.8v22.9c0,4.9,3.7,5.9,10.5,5.7c1.6,0,2.9,1.2,2.9,2.8v12.2c0,1.5-1.1,2.7-2.6,2.8c-23.3,1.8-30.2-5.9-30.2-23.4
			V73.8l0,0V55.1l0,0V39.7c0-1.5,1.2-2.8,2.8-2.8h13.9c1.5,0,2.8,1.2,2.8,2.8v15.4h10.6c1.5,0,2.8,1.2,2.8,2.8V71
			c0,1.5-1.2,2.8-2.8,2.8H143.3z"/>
	</g>
	<g>
		<path class="st0" d="M51.7,3.6c-27,0-48.9,21.9-48.9,48.9c0,13.3,5.3,33.3,13.9,50.2c3.8-8.8,12.6-14.9,22.8-14.9h24.3
			c10.2,0,19,6.1,22.8,14.9c8.6-16.9,13.9-36.9,13.9-50.2C100.6,25.5,78.7,3.6,51.7,3.6z M51.7,77.7c-13.9,0-25.2-11.3-25.2-25.2
			s11.3-25.2,25.2-25.2C65.7,27.2,77,38.6,77,52.5S65.7,77.7,51.7,77.7z"/>
		<circle class="st1" cx="51.7" cy="126.8" r="14.8"/>
	</g>
</g>
<g>
	<g>
		<path class="st6" d="M142.8-861.4c4.8,0,8.8-1.9,11.2-4.4l14,8c-5.7,7.9-14.3,12-25.4,12c-19.9,0-32.2-13.4-32.2-30.7
			s12.6-30.7,31-30.7c17,0,29.6,13.2,29.6,30.7c0,2.4-0.2,4.8-0.7,7h-41.3C131-863.5,136.4-861.4,142.8-861.4z M153.5-882.6
			c-1.9-6.8-7.1-9.2-12.3-9.2c-6.6,0-11.1,3.3-12.7,9.2H153.5z"/>
		<path class="st6" d="M198.2-873.2v23.2c0,1.4-1.1,2.5-2.5,2.5h-12.5c-1.4,0-2.5-1.1-2.5-2.5v-76.5c0-1.4,1.1-2.5,2.5-2.5h12.5
			c1.4,0,2.5,1.1,2.5,2.5V-873.2"/>
	</g>
</g>
<path class="st6" d="M284.3-905.7h12.5c1.4,0,2.5,1.1,2.5,2.5v53.2c0,1.4-1.1,2.5-2.5,2.5h-12.5c-1.4,0-2.5-1.1-2.5-2.5v-53.2
	C281.8-904.5,283-905.7,284.3-905.7z"/>
<circle class="st6" cx="290.6" cy="-923.9" r="10.1"/>
<path class="st6" d="M215.1-851.9l-15.7-21c-1.7-2.2-1.7-5.2,0-7.5l15.1-20.8c2.1-2.8,5.4-4.5,8.9-4.5h10.4c1.6,0,2.5,1.8,1.5,3
	l-16.5,22.7c-1.4,2-1.4,4.7,0,6.6l17,22.7c0.9,1.3,0,3.1-1.5,3.1h-10.4C220.5-847.5,217.2-849.1,215.1-851.9z"/>
<path class="st1" d="M250.6-851.9l-15.7-21c-1.7-2.2-1.7-5.2,0-7.5l15.1-20.8c2.1-2.8,5.4-4.5,8.9-4.5h10.4c1.6,0,2.5,1.8,1.5,3
	l-16.5,22.7c-1.4,2-1.4,4.7,0,6.6l17,22.7c0.9,1.3,0,3.1-1.5,3.1h-10.4C255.9-847.5,252.7-849.1,250.6-851.9z"/>
<path class="st6" d="M331.2-888.9c-1.1,0-2,0.9-2,2v18.6c0,4.5,3.5,5.3,9.9,5.1c1.1,0,2.1,0.9,2.1,2v11.9c0,1-0.8,1.9-1.9,2
	c-21.3,1.8-27.6-5.2-27.6-21v-20.6l0,0v-16.8l0,0V-920c0-1.1,0.9-2,2-2h13.5c1.1,0,2,0.9,2,2v12.3c0,1.1,0.9,2,2,2h8
	c1.1,0,2,0.9,2,2v12.8c0,1.1-0.9,2-2,2H331.2z"/>
<path class="st6" d="M93.3-888.9v20.6c0,4.4,3.4,5.3,9.4,5.1c1.4,0,2.6,1.1,2.6,2.5l0,10.9c0,1.3-1,2.4-2.3,2.5
	c-20.9,1.6-27.1-5.3-27.1-21v-20.6l0,0v-16.8l0,0v-13.8c0-1.4,1.1-2.5,2.5-2.5h12.5c1.4,0,2.5,1.1,2.5,2.5v13.8h9.5
	c1.4,0,2.5,1.1,2.5,2.5v11.8c0,1.4-1.1,2.5-2.5,2.5H93.3z"/>
<circle class="st7" cx="3.6" cy="-883.8" r="40.5"/>
<path class="st1" d="M28.8-838.1L5.5-869.2C3-872.5,3-877,5.4-880.4l22.5-31c3.1-4.2,8-6.7,13.3-6.7h15.5c2.3,0,3.7,2.6,2.3,4.5
	l-24.6,33.8c-2.1,2.9-2.1,6.9,0.1,9.8L59.7-836c1.4,1.9,0.1,4.6-2.3,4.6H41.9C36.7-831.5,31.9-833.9,28.8-838.1z"/>
<path class="st1" d="M-17.9-934.2L5.4-903c2.5,3.3,2.5,7.8,0.1,11.1l-22.5,31c-3.1,4.2-8,6.7-13.3,6.7h-15.5c-2.3,0-3.7-2.6-2.3-4.5
	l24.6-33.8c2.1-2.9,2.1-6.9-0.1-9.8l-25.3-33.8c-1.4-1.9-0.1-4.6,2.3-4.6H-31C-25.8-940.7-21-938.3-17.9-934.2z"/>
<image style="overflow:visible;" width="2560" height="992" xlink:href="../../../../../Wallapop.svg.png"  transform="matrix(0.2648 0 0 0.2648 -727.1722 -1003.1009)">
</image>
<image style="overflow:visible;" width="2560" height="503" xlink:href="../../../../../BlaBlaCar_logo.svg.png"  transform="matrix(0.17 0 0 0.17 -626.0011 -770.3788)">
</image>
</svg>
