<?xml version="1.0" encoding="utf-8"?>
<!-- Generator: Adobe Illustrator 27.0.0, SVG Export Plug-In . SVG Version: 6.00 Build 0)  -->
<svg version="1.1" id="Layer_1" xmlns="http://www.w3.org/2000/svg" xmlns:xlink="http://www.w3.org/1999/xlink" x="0px" y="0px"
	 viewBox="0 0 122 40" style="enable-background:new 0 0 122 40;" xml:space="preserve">
<style type="text/css">
	.st0{fill:#FFB800;}
	.st1{fill:#007985;}
</style>
<g>
	<g>
		<g>
			<path d="M57.6,29c1.5,0,2.8-0.6,3.5-1.4l4.3,2.5c-1.8,2.5-4.5,3.7-7.9,3.7c-6.2,0-10-4.2-10-9.6s3.9-9.6,9.6-9.6
				c5.3,0,9.2,4.1,9.2,9.6c0,0.8-0.1,1.5-0.2,2.2H53.3C54,28.4,55.6,29,57.6,29z M60.9,22.4c-0.6-2.1-2.2-2.9-3.8-2.9
				c-2.1,0-3.4,1-3.9,2.9H60.9z"/>
			<path d="M74.8,25.4v7.2c0,0.4-0.3,0.8-0.8,0.8h-3.9c-0.4,0-0.8-0.3-0.8-0.8V8.8c0-0.4,0.3-0.8,0.8-0.8h3.9c0.4,0,0.8,0.3,0.8,0.8
				V25.4"/>
		</g>
		<path d="M101.7,15.3h3.9c0.4,0,0.8,0.3,0.8,0.8v16.5c0,0.4-0.3,0.8-0.8,0.8h-3.9c-0.4,0-0.8-0.3-0.8-0.8V16
			C100.9,15.6,101.2,15.3,101.7,15.3z"/>
		<circle cx="103.6" cy="9.6" r="3.2"/>
		<path d="M80.1,32l-4.9-6.5c-0.5-0.7-0.5-1.6,0-2.3l4.7-6.5c0.6-0.9,1.7-1.4,2.8-1.4h3.2c0.5,0,0.8,0.6,0.5,0.9l-5.1,7.1
			c-0.4,0.6-0.4,1.4,0,2.1l5.3,7.1c0.3,0.4,0,1-0.5,1h-3.2C81.8,33.4,80.8,32.8,80.1,32z"/>
		<path class="st0" d="M91.2,32l-4.9-6.5c-0.5-0.7-0.5-1.6,0-2.3l4.7-6.5c0.6-0.9,1.7-1.4,2.8-1.4H97c0.5,0,0.8,0.6,0.5,0.9
			l-5.1,7.1c-0.4,0.6-0.4,1.4,0,2.1l5.3,7.1c0.3,0.4,0,1-0.5,1h-3.2C92.8,33.4,91.8,32.8,91.2,32z"/>
		<path d="M116.2,20.5c-0.3,0-0.6,0.3-0.6,0.6v5.8c0,1.4,1.1,1.7,3.1,1.6c0.4,0,0.6,0.3,0.6,0.6v3.7c0,0.3-0.3,0.6-0.6,0.6
			c-6.6,0.6-8.6-1.6-8.6-6.5v-6.4l0,0v-5.2l0,0v-4.4c0-0.3,0.3-0.6,0.6-0.6h4.2c0.3,0,0.6,0.3,0.6,0.6v3.8c0,0.3,0.3,0.6,0.6,0.6
			h2.5c0.3,0,0.6,0.3,0.6,0.6v4c0,0.3-0.3,0.6-0.6,0.6H116.2z"/>
		<path d="M42.2,20.5v6.4c0,1.4,1,1.6,2.9,1.6c0.4,0,0.8,0.3,0.8,0.8v3.4c0,0.4-0.3,0.7-0.7,0.8c-6.5,0.5-8.4-1.7-8.4-6.5v-6.4l0,0
			v-5.2l0,0V11c0-0.4,0.3-0.8,0.8-0.8h3.9c0.4,0,0.8,0.3,0.8,0.8v4.3h3c0.4,0,0.8,0.3,0.8,0.8v3.7c0,0.4-0.3,0.8-0.8,0.8H42.2z"/>
	</g>
	<g>
		<path class="st1" d="M16.6,0.9C9.1,0.9,3,7,3,14.5c0,3.7,1.5,9.3,3.9,14c1.1-2.5,3.5-4.2,6.4-4.2H20c2.8,0,5.3,1.7,6.4,4.2
			c2.4-4.7,3.9-10.3,3.9-14C30.3,7,24.2,0.9,16.6,0.9z M16.6,21.6c-3.9,0-7-3.2-7-7s3.2-7,7-7c3.9,0,7,3.2,7,7S20.5,21.6,16.6,21.6z
			"/>
		<circle class="st0" cx="16.6" cy="35.3" r="4.1"/>
	</g>
</g>
</svg>
